<?xml version="1.0" standalone="no"?>
<!DOCTYPE svg PUBLIC "-//W3C//DTD SVG 20010904//EN"
 "http://www.w3.org/TR/2001/REC-SVG-20010904/DTD/svg10.dtd">
<svg version="1.0" xmlns="http://www.w3.org/2000/svg"
 width="1080.000000pt" height="1080.000000pt" viewBox="0 0 1080.000000 1080.000000"
 preserveAspectRatio="xMidYMid meet">
<metadata>
Created by potrace 1.14, written by Peter Selinger 2001-2017
</metadata>
<g transform="translate(0.000000,1080.000000) scale(0.100000,-0.100000)"
fill="#000000" stroke="none">
<path d="M1833 8730 c-42 -17 -47 -44 -48 -250 -2 -287 -10 -279 291 -278 229
0 240 3 278 76 14 27 17 63 16 215 -2 195 -5 209 -57 236 -26 13 -447 14 -480
1z"/>
<path d="M84 8300 c-90 -9 -82 101 -82 -1126 1 -599 3 -1095 6 -1102 2 -8 16
-18 29 -23 19 -7 145 -11 243 -8 8 1 62 0 120 0 197 -2 445 -3 460 -2 8 0 62
0 120 0 58 -1 112 -1 120 0 8 0 90 0 182 1 232 1 213 -23 213 270 l1 232 -24
19 c-22 17 -49 18 -420 18 -219 0 -411 0 -428 1 l-31 0 0 833 c0 607 -3 839
-12 854 -6 12 -21 25 -33 29 -27 8 -389 11 -464 4z"/>
<path d="M3649 7994 c-41 -6 -90 -18 -109 -26 -19 -8 -39 -16 -45 -17 -5 -1
-37 -17 -70 -36 -64 -35 -116 -85 -159 -149 -25 -38 -32 -37 -40 6 -2 7 -6 31
-11 53 -11 56 -41 112 -70 131 -24 16 -126 21 -306 15 -41 -1 -83 -32 -97 -71
-4 -14 -8 -424 -7 -911 l0 -885 30 -30 29 -29 222 -2 c201 -1 225 1 253 18 29
18 65 78 52 89 -8 7 -9 50 -1 50 3 0 5 15 3 33 -5 53 -5 139 0 144 3 2 1 18
-3 34 -5 16 -6 29 -2 29 8 0 5 127 -3 148 -2 6 -1 12 3 12 8 0 6 124 -2 146
-3 8 -2 14 2 14 7 0 5 126 -3 148 -2 6 -1 12 3 12 8 0 7 83 -2 105 -3 8 -2 15
2 15 4 0 7 42 7 93 0 80 3 99 28 149 124 252 463 237 531 -23 11 -43 14 -164
14 -597 1 -298 4 -552 8 -564 16 -52 20 -53 275 -53 l238 0 23 25 c26 27 24
-9 30 830 3 340 3 346 27 392 26 54 86 120 128 142 57 29 139 37 204 21 84
-22 135 -66 177 -155 l27 -55 2 -545 c1 -300 5 -564 8 -588 9 -64 27 -69 270
-70 112 0 217 3 232 7 16 4 36 21 46 39 18 30 19 64 18 594 -1 310 -3 579 -5
598 -20 184 -68 329 -146 447 -41 60 -147 162 -197 188 -21 11 -40 22 -43 25
-10 11 -145 52 -190 57 -170 20 -328 -8 -481 -86 -91 -47 -104 -57 -180 -135
l-56 -58 -24 33 c-24 36 -109 121 -150 152 -29 23 -121 67 -148 72 -12 2 -25
6 -30 9 -30 19 -217 25 -312 10z"/>
<path d="M6945 7998 c-58 -8 -124 -27 -142 -41 -7 -5 -13 -6 -13 -1 0 5 -4 5
-8 -1 -4 -5 -23 -19 -42 -29 -42 -23 -131 -111 -185 -183 -24 -33 -43 -49 -48
-44 -6 6 -27 61 -48 123 -40 117 -67 157 -112 159 -12 1 -81 1 -153 1 -147 1
-183 -11 -205 -65 -9 -22 -12 -309 -12 -1207 0 -1298 -5 -1205 60 -1247 37
-24 420 -27 467 -3 37 18 67 75 56 105 -4 11 -4 30 1 43 5 12 5 22 1 22 -4 0
-7 11 -7 25 0 14 4 25 8 25 4 0 4 8 0 18 -10 21 -10 53 0 69 4 6 4 14 -1 17
-9 5 -8 59 2 75 4 5 2 12 -3 15 -5 3 -5 21 -1 41 4 19 5 35 1 35 -8 0 -6 54 3
69 4 5 2 12 -3 15 -5 3 -5 21 -1 41 4 19 5 35 1 35 -8 0 -7 42 2 56 3 5 2 15
-2 22 -4 7 -6 25 -3 41 4 29 4 28 75 -44 63 -62 131 -119 147 -120 3 -1 20 -9
38 -19 34 -17 41 -20 117 -34 44 -9 200 -8 255 2 68 11 94 17 102 22 4 3 18 7
30 9 65 12 236 101 308 160 33 27 109 103 141 141 34 40 99 141 99 154 0 6 5
10 10 10 6 0 10 5 10 11 0 6 7 25 15 42 22 49 65 182 69 219 3 18 5 33 6 33 6
0 13 99 13 190 1 117 -4 163 -30 270 -4 17 -7 32 -8 35 -10 53 -86 217 -127
275 -16 22 -36 51 -46 65 -25 36 -130 140 -142 140 -5 0 -10 4 -10 9 0 13
-116 86 -193 121 -57 26 -130 50 -198 65 -81 18 -220 24 -294 13z m135 -523
c14 -3 36 -8 50 -11 44 -9 117 -55 169 -106 43 -42 106 -146 115 -189 2 -8 7
-23 12 -34 4 -11 8 -72 8 -135 -1 -99 -5 -124 -27 -183 -25 -63 -54 -114 -83
-144 -7 -7 -14 -16 -16 -20 -13 -31 -136 -102 -209 -121 -45 -12 -184 -7 -221
7 -16 6 -28 8 -28 5 0 -11 -137 68 -170 99 -68 64 -150 193 -136 216 4 5 2 11
-4 13 -8 3 -24 90 -23 128 1 21 12 102 16 120 46 180 215 334 391 356 22 3 41
6 43 8 4 4 86 -2 113 -9z"/>
<path d="M1857 7965 c-17 -5 -40 -23 -51 -38 -21 -28 -21 -32 -22 -910 0 -974
-2 -946 59 -966 28 -9 215 -16 317 -11 147 6 151 7 178 34 l27 26 3 895 2 895
-40 40 c-22 22 -50 40 -62 41 -158 5 -388 2 -411 -6z"/>
<path d="M9475 6910 c-73 -15 -111 -64 -102 -132 5 -40 41 -81 81 -94 27 -9
15 -66 -21 -102 -34 -34 -37 -45 -23 -87 26 -78 160 -58 160 23 0 16 -15 46
-35 71 -48 61 -47 72 17 105 61 31 86 87 64 140 -23 54 -85 87 -141 76z"/>
<path d="M8743 6517 c-12 -5 -27 -23 -32 -39 -9 -25 -7 -33 14 -54 51 -51 138
4 105 67 -13 24 -60 38 -87 26z"/>
<path d="M10390 6487 c-62 -16 -95 -76 -84 -149 8 -45 -9 -58 -82 -62 -33 -2
-66 -6 -75 -10 -23 -10 -37 -46 -32 -80 4 -29 31 -59 45 -50 5 3 8 1 8 -5 0
-13 58 -5 84 12 12 8 22 24 23 36 1 12 10 39 20 59 14 29 24 37 43 36 23 -1
60 -8 85 -15 26 -8 87 25 110 60 25 37 26 60 5 111 -19 47 -89 73 -150 57z"/>
<path d="M9783 6469 c-13 -5 -23 -6 -23 -3 0 9 -84 -53 -104 -77 -41 -49 -52
-129 -30 -234 16 -83 12 -107 -37 -213 -58 -125 -174 -250 -284 -306 -164 -83
-311 -64 -436 55 -45 43 -141 179 -181 255 -44 84 -50 118 -34 204 22 117 7
182 -55 238 -45 41 -97 59 -157 56 -153 -7 -207 -182 -96 -312 10 -12 24 -22
31 -22 7 0 13 -3 13 -7 0 -5 36 -26 81 -47 61 -30 87 -49 108 -80 40 -58 116
-222 131 -281 20 -82 21 -87 24 -156 2 -36 8 -75 15 -86 10 -21 66 -41 78 -29
4 3 12 1 20 -5 7 -6 13 -8 13 -3 0 19 236 5 365 -21 42 -9 128 -49 172 -81 46
-33 182 -171 220 -222 59 -79 88 -92 144 -67 21 10 39 21 39 25 0 7 97 58 165
86 42 18 45 19 85 28 14 3 49 12 79 20 63 18 155 31 192 28 14 -1 58 -15 99
-32 40 -16 81 -30 91 -30 11 0 19 -4 19 -8 0 -15 98 -4 143 16 57 25 84 49
107 93 36 69 12 149 -59 194 -35 22 -116 41 -156 36 -44 -5 -126 -54 -183
-111 -64 -62 -105 -85 -174 -95 -24 -4 -45 -8 -49 -10 -23 -15 -286 -23 -354
-11 -50 8 -145 51 -145 65 0 6 -5 11 -11 11 -24 0 -84 93 -93 144 -2 14 -7 30
-10 35 -14 22 -8 170 9 231 1 3 5 19 10 35 20 74 97 207 146 252 13 11 60 40
104 63 119 61 155 102 170 186 12 79 -28 160 -91 184 -40 16 -84 19 -111 9z"/>
<path d="M9089 6404 c-96 -54 -177 -186 -183 -297 -5 -80 5 -113 50 -166 108
-126 325 -125 428 2 37 46 45 66 51 123 3 39 -22 134 -37 134 -4 0 -8 7 -8 15
0 33 -180 192 -224 199 -6 1 -16 5 -22 8 -5 4 -30 -4 -55 -18z"/>
<path d="M9934 5935 c-120 -36 -188 -121 -183 -230 10 -221 292 -324 455 -165
64 62 71 71 99 133 35 76 45 145 30 194 -6 19 -58 53 -90 59 -98 19 -132 22
-196 21 -42 0 -94 -6 -115 -12z"/>
<path d="M8289 5806 c-2 -2 -21 -7 -43 -10 -80 -13 -137 -54 -170 -122 -16
-32 -27 -146 -14 -138 5 3 8 -1 8 -8 0 -44 93 -125 155 -135 11 -2 33 -5 48
-7 45 -7 125 22 166 59 76 69 90 177 34 258 -28 41 -92 84 -133 89 -14 2 -30
7 -36 10 -6 4 -13 6 -15 4z"/>
<path d="M10544 5692 c-32 -26 -35 -48 -13 -76 23 -29 78 -36 98 -12 23 27 22
64 -1 86 -26 24 -56 25 -84 2z"/>
<path d="M2252 5503 c-38 -14 -38 -21 -37 -1140 0 -1008 2 -1084 18 -1100 15
-16 70 -17 728 -17 l712 0 18 23 c17 21 19 44 19 246 0 204 -2 225 -19 246
l-19 24 -419 1 c-230 1 -425 2 -433 3 -13 1 -15 101 -14 838 l0 838 -21 21
c-21 21 -30 22 -271 22 -137 -1 -255 -3 -262 -5z"/>
<path d="M4789 5206 c-2 -2 -26 -7 -54 -10 -53 -7 -87 -17 -175 -49 -203 -75
-378 -229 -494 -435 -35 -63 -84 -185 -92 -232 -3 -14 -7 -31 -9 -38 -19 -54
-27 -287 -13 -387 9 -65 44 -183 59 -201 6 -8 8 -14 5 -14 -9 0 55 -117 102
-189 49 -74 216 -241 241 -241 5 0 11 -4 13 -8 5 -13 156 -98 193 -108 6 -1
34 -12 64 -23 29 -11 67 -22 85 -25 17 -3 45 -9 61 -14 76 -21 399 -9 440 16
6 4 17 7 25 9 40 6 250 109 270 132 3 3 21 17 40 31 87 61 132 117 125 156 -2
10 -4 24 -4 29 -1 10 -9 20 -105 128 -32 37 -64 73 -70 81 -6 8 -28 26 -49 40
-46 30 -59 27 -146 -38 -141 -103 -373 -148 -521 -100 -8 3 -16 5 -18 4 -1 0
-26 11 -55 27 -98 51 -190 170 -199 258 l-3 29 605 2 c658 1 663 2 704 57 19
25 21 42 21 160 -1 140 -6 191 -28 272 -19 67 -77 192 -122 259 -46 69 -164
191 -235 243 -65 47 -165 103 -186 103 -8 0 -14 4 -14 9 0 5 -10 11 -22 14
-13 3 -48 12 -80 21 -31 8 -69 18 -85 22 -31 7 -268 16 -274 10z m249 -486
c52 -19 106 -53 147 -95 27 -27 76 -93 76 -102 0 -5 8 -16 17 -26 11 -13 13
-20 5 -25 -8 -5 -680 -8 -751 -3 -22 2 27 79 95 147 122 124 257 158 411 104z"/>
<path d="M8690 5203 c-56 -9 -167 -36 -200 -50 -107 -45 -181 -84 -245 -133
-39 -30 -162 -156 -185 -190 -13 -19 -27 -37 -30 -40 -3 -3 -11 -16 -19 -30
-124 -216 -169 -414 -147 -655 4 -43 9 -82 11 -85 2 -4 7 -22 10 -40 15 -88
110 -284 178 -369 53 -65 178 -180 242 -221 39 -24 73 -49 77 -55 4 -5 8 -6 8
-2 0 5 15 0 33 -11 44 -27 206 -81 270 -90 68 -9 309 -9 370 1 94 15 329 116
367 157 3 3 19 15 35 27 54 37 114 97 123 123 5 14 5 38 1 55 -9 31 -21 46
-151 188 -102 111 -117 113 -225 31 -59 -45 -161 -91 -218 -98 -16 -2 -37 -6
-45 -10 -42 -17 -260 -5 -260 15 0 5 -8 9 -18 9 -32 0 -96 41 -150 97 -54 55
-84 109 -95 173 l-7 35 578 0 c317 -1 601 3 630 7 111 17 126 44 125 221 -1
139 -5 193 -16 204 -4 3 -7 15 -7 26 0 22 -39 134 -66 187 -70 141 -210 296
-339 376 -70 44 -143 84 -152 86 -5 0 -19 5 -33 10 -86 33 -183 50 -300 53
-69 1 -136 0 -150 -2z m264 -482 c89 -31 159 -92 223 -195 18 -28 33 -53 33
-56 0 -3 -173 -5 -385 -5 -212 0 -385 3 -385 8 0 17 55 93 108 147 115 119
256 154 406 101z"/>
<path d="M5943 5154 c-12 -13 -23 -29 -24 -36 -3 -33 5 -67 26 -113 12 -27 31
-74 41 -102 10 -29 22 -53 26 -53 4 0 5 -7 2 -15 -4 -8 -1 -15 5 -15 6 0 11
-7 11 -15 0 -8 8 -34 19 -58 51 -118 91 -213 91 -218 0 -4 8 -24 17 -45 9 -22
17 -41 18 -44 2 -7 23 -58 39 -95 8 -16 23 -55 35 -85 26 -64 32 -79 60 -142
12 -26 21 -51 21 -54 0 -3 6 -20 14 -37 8 -18 44 -104 79 -192 74 -183 83
-204 108 -262 11 -24 19 -47 19 -52 0 -5 10 -29 21 -53 25 -49 33 -68 51 -122
19 -57 59 -96 100 -97 38 -1 211 -1 246 0 19 1 107 71 89 71 -3 0 24 69 60
153 36 83 71 168 78 187 7 19 21 53 31 75 10 22 18 42 19 45 1 3 8 19 15 35 7
17 14 35 15 40 2 6 15 37 29 70 15 33 31 69 35 80 14 33 53 128 62 150 67 159
107 255 159 380 34 83 68 164 75 180 7 17 25 59 40 95 15 36 33 79 41 97 8 17
14 34 14 37 0 3 11 30 25 59 33 73 41 126 22 152 -15 19 -28 20 -269 22 -185
2 -260 -1 -278 -10 -32 -16 -61 -75 -102 -207 -18 -58 -33 -107 -33 -110 0 -3
-15 -52 -34 -110 -40 -130 -44 -144 -42 -148 1 -1 -6 -16 -14 -32 -9 -17 -13
-30 -10 -30 3 0 1 -9 -5 -21 -6 -11 -13 -29 -15 -39 -2 -11 -20 -70 -40 -132
-20 -62 -38 -117 -39 -123 -14 -51 -20 -71 -25 -80 -3 -5 -6 -16 -8 -24 -4
-28 -21 -33 -28 -10 -3 13 -10 33 -15 44 -7 17 -52 159 -56 175 0 3 -6 18 -12
33 -7 16 -12 31 -12 35 0 3 -31 103 -69 221 -38 119 -90 282 -116 363 -26 82
-51 150 -56 154 -5 3 -7 9 -4 14 3 4 -13 15 -35 24 -33 13 -80 16 -267 15
-223 -1 -226 -1 -250 -25z"/>
<path d="M10070 4963 c-109 -39 -173 -123 -163 -217 13 -130 145 -216 284
-184 164 38 220 240 96 349 -53 47 -160 73 -217 52z"/>
</g>
</svg>
